<svg width="10" height="10" viewBox="0 0 10 10" fill="none" xmlns="http://www.w3.org/2000/svg">
<g clip-path="url(#clip0_30_3)">
<path d="M9.64285 5H8.19057C8.00641 5 7.85713 4.85072 7.85713 4.66656V4.58342C7.85713 4.46893 7.91902 4.36717 8.01271 4.30137C8.28184 4.11235 8.44207 3.77906 8.37922 3.41326C8.31881 3.06168 8.0417 2.77164 7.6925 2.69871C7.11531 2.57819 6.60715 3.01547 6.60715 3.57143C6.60715 3.87586 6.75986 4.14412 6.99264 4.30508C7.08469 4.36873 7.14285 4.47026 7.14285 4.58217V4.66655C7.14285 4.85071 6.99357 4.99998 6.80941 4.99998H5.35713C5.15988 5 5 5.15989 5 5.35715V6.80944C5 6.9936 5.14928 7.14287 5.33344 7.14287H5.41658C5.53107 7.14287 5.63283 7.08098 5.69863 6.98729C5.88766 6.71817 6.22094 6.55793 6.58674 6.62078C6.93832 6.68119 7.22836 6.9583 7.30129 7.3075C7.42182 7.88469 6.98453 8.39285 6.42857 8.39285C6.12414 8.39285 5.85588 8.24014 5.69492 8.00737C5.63127 7.91531 5.52975 7.85715 5.41783 7.85715H5.33346C5.1493 7.85715 5.00002 8.00643 5.00002 8.19059V9.64287C5.00002 9.84012 5.1599 10 5.35717 10H9.64289C9.84014 10 10 9.84014 10 9.64287V5.35715C10 5.15989 9.84012 5 9.64285 5Z" fill="#DC12EC"/>
<path d="M3.41328 1.62076C3.77908 1.55793 4.11234 1.71814 4.30137 1.98729C4.36717 2.08098 4.46865 2.14287 4.58314 2.14287H4.65602C4.85061 2.14287 4.99998 1.99359 4.99998 1.80943V0.357148C5 0.159883 4.84012 0 4.64285 0H0.357148C0.159883 0 0 0.159883 0 0.357148V4.64287C0 4.84012 0.159883 5 0.357148 5H1.80943C1.99359 5 2.14287 5.14928 2.14287 5.33344V5.4166C2.14287 5.53109 2.08098 5.63285 1.98729 5.69863C1.71816 5.88766 1.55793 6.22092 1.62076 6.58672C1.68117 6.9383 1.95826 7.22834 2.30748 7.30129C2.88469 7.42182 3.39285 6.98455 3.39285 6.42858C3.39285 6.12414 3.24014 5.85588 3.00736 5.69492C2.91531 5.63127 2.85715 5.52975 2.85715 5.41785V5.33348C2.85715 5.14932 3.00643 5.00004 3.19059 5.00004H4.64287C4.84012 5.00004 5.00002 4.84016 5.00002 4.64289V3.19061C5.00002 3.00645 4.85074 2.85717 4.66658 2.85717H4.58221C4.47029 2.85717 4.36877 2.91533 4.30514 3.00738C4.14416 3.24014 3.8759 3.39285 3.57145 3.39285C3.01547 3.39285 2.57818 2.88469 2.69873 2.30748C2.77162 1.95826 3.06168 1.68115 3.41328 1.62076Z" fill="#FEB42E"/>
<path d="M9.64287 0H5.35717C5.1599 0 5.00002 0.159883 5.00002 0.357148V1.80943C5.00002 1.99359 4.85074 2.14287 4.66658 2.14287H4.58343C4.46894 2.14287 4.36718 2.08098 4.30138 1.98729C4.11236 1.71816 3.77908 1.55793 3.41326 1.62076C3.06168 1.68117 2.77164 1.95828 2.69871 2.30748C2.5782 2.88469 3.01547 3.39285 3.57146 3.39285C3.8759 3.39285 4.14416 3.24014 4.30515 3.00736C4.36881 2.91531 4.47033 2.85715 4.58222 2.85715H4.6666C4.85076 2.85715 5.00004 3.00643 5.00004 3.19059V4.64287C5.00004 4.84012 5.15992 5.00002 5.35718 5.00002H6.80947C6.99363 5.00002 7.14291 4.85074 7.14291 4.66658V4.58344C7.14291 4.46895 7.08101 4.36719 6.98732 4.30139C6.7182 4.11236 6.55797 3.77908 6.6208 3.41326C6.68121 3.06168 6.95832 2.77164 7.30752 2.69871C7.88472 2.5782 8.39289 3.01547 8.39289 3.57146C8.39289 3.8759 8.24017 4.14416 8.0074 4.30516C7.91535 4.36881 7.85718 4.47033 7.85718 4.58223V4.6666C7.85718 4.85076 8.00646 5.00004 8.19062 5.00004H9.64291C9.84015 5.00004 10.0001 4.84016 10.0001 4.64289V0.357148C10 0.159883 9.84013 0 9.64287 0Z" fill="#FF7CA5"/>
<path d="M6.58672 6.62076C6.22092 6.55793 5.88766 6.71814 5.69863 6.98729C5.63283 7.08098 5.53109 7.14287 5.41658 7.14287H5.33344C5.14928 7.14287 5 6.99359 5 6.80943V5.35715C5 5.1599 4.84012 5 4.64285 5H3.19057C3.00641 5 2.85713 5.14928 2.85713 5.33344V5.41658C2.85713 5.53107 2.91902 5.63283 3.01271 5.69863C3.28184 5.88766 3.44207 6.22092 3.37924 6.58672C3.31883 6.9383 3.04174 7.22834 2.69252 7.30129C2.11531 7.42186 1.60715 6.98455 1.60715 6.42857C1.60715 6.12414 1.75986 5.85588 1.99264 5.69488C2.08469 5.63125 2.14285 5.52973 2.14285 5.41781V5.33344C2.14285 5.14928 1.99357 5 1.80941 5H0.357148C0.159883 5 0 5.15988 0 5.35715V9.64287C0 9.84012 0.159883 10 0.357148 10H4.64287C4.84012 10 5.00002 9.84012 5.00002 9.64285V8.19057C5.00002 8.00641 5.1493 7.85713 5.33346 7.85713H5.41783C5.52973 7.85713 5.63125 7.91529 5.6949 8.00734C5.85588 8.24012 6.12414 8.39283 6.42859 8.39283C6.98457 8.39283 7.42188 7.88467 7.30131 7.30746C7.22838 6.95826 6.93832 6.68115 6.58672 6.62076Z" fill="#6E26DB"/>
<path d="M3.05584 2.30749C3.12707 1.96629 3.40606 1.69543 3.74674 1.62672C3.64094 1.60549 3.52912 1.60083 3.41326 1.62075C3.06168 1.68118 2.77164 1.95827 2.69871 2.30749C2.57819 2.88469 3.01545 3.39286 3.57143 3.39286C3.63217 3.39286 3.69092 3.38522 3.74819 3.37364C3.28246 3.27792 2.94873 2.82042 3.05584 2.30749Z" fill="#FFC36E"/>
<path d="M4.94054 2.14285H5.02369C5.20785 2.14285 5.35712 1.99357 5.35712 1.80941V0.357148C5.35712 0.159883 5.51703 0 5.71425 0H5.3571C5.15988 0 4.99998 0.159883 4.99998 0.357148V1.80943C4.99998 1.9432 4.92072 2.05775 4.80701 2.11088C4.84851 2.13006 4.89296 2.14285 4.94054 2.14285Z" fill="#FFC36E"/>
<path d="M5.35716 4.64285V3.19057C5.35716 3.00641 5.20788 2.85713 5.02372 2.85713H4.93934C4.892 2.85713 4.84737 2.86948 4.80585 2.88848C4.92022 2.94133 5.00005 3.05631 5.00005 3.19061V4.64285C5.00005 4.84008 5.15995 5 5.35719 5H5.71434C5.51706 5 5.35716 4.8401 5.35716 4.64285Z" fill="#FFC36E"/>
<path d="M2.66461 7.30129C2.3154 7.22836 2.03831 6.93832 1.9779 6.58672C1.91506 6.22092 2.07528 5.88766 2.34442 5.69864C2.43811 5.63284 2.50001 5.5311 2.50001 5.41659V5.33342C2.50001 5.14926 2.35073 4.99998 2.16657 4.99998H1.8094C1.99356 5 2.14284 5.1493 2.14284 5.33344V5.41661C2.14284 5.5311 2.08094 5.63286 1.98725 5.69866C1.71813 5.88768 1.5579 6.22094 1.62073 6.58674C1.68114 6.93832 1.95825 7.2284 2.30745 7.30131C2.43506 7.32797 2.55881 7.326 2.67493 7.30288C2.67149 7.30217 2.66809 7.30202 2.66461 7.30129Z" fill="#D2555A"/>
<path d="M0.357148 4.64285V0.357148C0.357148 0.159883 0.517051 0 0.714277 0H0.357148C0.159902 0 0 0.159883 0 0.357148V4.64287C0 4.8401 0.159902 5 0.357148 5H0.714297C0.517051 5 0.357148 4.8401 0.357148 4.64285Z" fill="#D2555A"/>
<path d="M0.357148 9.64285V5.35715C0.357148 5.1599 0.517051 5 0.714297 5H0.357148C0.159902 5 0 5.15988 0 5.35715V9.64287C0 9.8401 0.159902 10 0.357148 10H0.714297C0.517051 10 0.357148 9.8401 0.357148 9.64285Z" fill="#23A0EB"/>
<path d="M6.99265 4.3051C7.0847 4.36875 7.14286 4.47026 7.14286 4.58219V4.66656C7.14286 4.85072 6.99358 5 6.80942 5H7.16657C7.35073 5 7.50001 4.85072 7.50001 4.66656V4.58219C7.50001 4.47028 7.44185 4.36875 7.34979 4.3051C7.11702 4.14414 6.96431 3.87588 6.96431 3.57145C6.96431 3.13838 7.2731 2.77867 7.68222 2.69717C7.10935 2.58401 6.60718 3.01883 6.60718 3.57145C6.60716 3.87588 6.75987 4.14412 6.99265 4.3051Z" fill="#23A0EB"/>
<path d="M5.33346 7.14285H5.4166C5.46416 7.14285 5.50863 7.13006 5.55014 7.11084C5.43643 7.05772 5.35715 6.94316 5.35715 6.80939V5.35715C5.35715 5.1599 5.51705 5 5.7143 5H5.35715C5.15992 5 5 5.15988 5 5.35715V6.80943C5.00002 6.99357 5.1493 7.14285 5.33346 7.14285Z" fill="#23A0EB"/>
<path d="M5.35715 9.64285V8.19056C5.35715 8.05629 5.43697 7.94131 5.55135 7.88843C5.5098 7.86943 5.46516 7.85709 5.41781 7.85709H5.33344C5.14928 7.85709 5 8.00636 5 8.19052V9.64283C5 9.84006 5.1599 9.99998 5.35715 9.99998H5.7143C5.51705 10 5.35715 9.84009 5.35715 9.64285Z" fill="#23A0EB"/>
<path d="M6.61035 6.62674C6.60235 6.62513 6.59477 6.62215 6.5867 6.62076C6.2209 6.55793 5.88764 6.71814 5.6986 6.98728C5.6328 7.08097 5.53106 7.14287 5.41656 7.14287H5.77371C5.88821 7.14287 5.98996 7.08097 6.05576 6.98728C6.18492 6.8034 6.38217 6.67252 6.61035 6.62674Z" fill="#23A0EB"/>
<path d="M6.052 8.00734C5.98837 7.91529 5.88685 7.85715 5.77493 7.85715H5.41779C5.5297 7.85715 5.63122 7.91531 5.69486 8.00734C5.85583 8.24014 6.12409 8.39285 6.42855 8.39285C6.49044 8.39285 6.55056 8.38562 6.60892 8.37363C6.37904 8.32717 6.18087 8.19369 6.052 8.00734Z" fill="#23A0EB"/>
</g>
<defs>
<clipPath id="clip0_30_3">
<rect width="10" height="10" fill="white"/>
</clipPath>
</defs>
</svg>
